<?xml version="1.0" encoding="UTF-8"?> <svg xmlns="http://www.w3.org/2000/svg" id="a" viewBox="0 0 435 152"><defs><style>.b{fill:#d2c8b5;}.c{fill:#585757;}.d{fill:none;stroke:#d2c8b5;stroke-miterlimit:10;stroke-width:4px;}</style></defs><polyline class="d" points="80.3 143.03 144.96 143.03 144.96 7.3 9.24 7.3 9.24 72.9"></polyline><g><path class="c" d="M32.51,126.81c1.62,.29,3.24,.57,4.87,.81,5.84,.86,11.54,.56,17.04-1.83,3.46-1.5,6.48-3.61,9.23-6.14,3.91-3.59,6.88-7.89,9.33-12.57,3.08-5.86,5.08-12.11,6.5-18.55,1.32-5.99,2.45-12.03,4.07-17.95,1.67-6.11,3.64-12.1,6.31-17.86,2.07-4.45,4.7-8.52,7.91-12.22,4.18-4.81,9.41-7.83,15.65-9.11,2.56-.52,5.15-.84,7.76-.74,2.71,.11,5.4,.46,7.88,1.69,.08,.04,.17,.09,.24,.19-1.12-.05-2.22-.2-3.33-.28-2.11-.15-4.21-.16-6.31,0-1.55,.12-3.09,.34-4.59,.72-3.4,.86-6.37,2.58-9.08,4.74-3.35,2.67-5.83,6.05-7.88,9.79-3.32,6.05-5.52,12.52-7.31,19.16-2.05,7.57-3.53,15.27-5.17,22.94-1.48,6.91-3.75,13.55-7.19,19.74-1.85,3.34-4.07,6.45-6.67,9.27-2.7,2.92-5.75,5.42-9.25,7.27-3.54,1.87-7.28,3.18-11.31,3.69-6.07,.78-11.89-.08-17.57-2.22-.39-.15-.76-.37-1.15-.55Z"></path><path class="c" d="M43.57,126.2c2.15-.62,4.28-1.28,6.29-2.23,2.52-1.19,4.71-2.86,6.79-4.7,4.14-3.66,7.11-8.17,9.55-13.05,2.7-5.39,4.45-11.12,5.76-17,1.15-5.18,2.08-10.41,3.36-15.57,1.64-6.58,3.57-13.07,6.16-19.34,2.27-5.49,5.22-10.59,9.05-15.14,4.7-5.57,10.63-9.11,17.82-10.47,2.69-.51,5.42-.78,8.16-.61,1.41,.09,2.84,.14,4.2,.73-.45,0-.9-.02-1.35,0-5.19,.23-10.21,1.17-14.87,3.58-3.93,2.03-7.28,4.78-10.07,8.24-2.63,3.26-4.98,6.69-6.81,10.46-2.78,5.73-4.88,11.71-6.63,17.84-1.9,6.68-3.19,13.5-4.69,20.28-1.32,5.98-3.18,11.78-5.99,17.23-2.37,4.58-5.29,8.77-9.1,12.3-4.36,4.04-9.47,6.53-15.34,7.43-.75,.11-1.53,.02-2.3,.02Z"></path><path class="c" d="M53.93,138.54c-.55,.07-1.05,.18-1.55,.19-6.73,.22-13.31-.68-19.7-2.8-4.66-1.54-9.01-3.71-12.84-6.82-4.31-3.5-7.3-7.87-8.37-13.39-.66-3.39-.16-6.7,1.07-9.9,1.04-2.71,2.64-5.06,4.6-7.19,4.38-4.77,9.79-7.94,15.73-10.31,3.91-1.56,7.95-2.63,12.09-3.29,3.07-.49,6.15-.87,9.28-.81,2.25,.04,4.51-.09,6.76,.15-.42,0-.83,0-1.25,0-5.98,.01-11.82,.95-17.56,2.63-4.54,1.33-8.8,3.29-12.72,5.93-3.64,2.44-6.85,5.39-9.03,9.23-2.17,3.82-3.24,7.94-2.58,12.37,.58,3.9,2.2,7.31,4.83,10.27,2.85,3.2,6.31,5.56,10.05,7.57,4.7,2.53,9.68,4.27,14.92,5.26,1.87,.35,3.75,.66,5.66,.68,.18,0,.4-.09,.6,.22Z"></path><path class="c" d="M92.19,81.17c2.9-.28,5.75-.81,8.51-1.75,4.18-1.43,7.96-3.55,11.25-6.53,3.54-3.2,6.01-7.06,7.27-11.65,1.22-4.44,.95-8.84-.92-13.08-1.84-4.16-4.8-7.37-8.61-9.82-.95-.61-.96-.67,.05-1.2,2.1-1.11,1.39-1.33,3.74,.07,3.49,2.08,6.26,4.88,8.28,8.36,1.36,2.36,2.16,4.95,2.43,7.69,.61,6.1-1.37,11.41-5.15,16.05-3.51,4.31-8.01,7.33-13.19,9.34-3.46,1.34-7.03,2.15-10.73,2.45-.98,.08-1.94,.09-2.92,.07Z"></path><path class="c" d="M96.15,32.01c-1.16,1.46-2.69,1.3-4.15,1.14-2.04-.23-4.04,0-6.05,.27-1.66,.22-3.3,.58-4.91,1.04-.09,.03-.18,.08-.34-.15,5-1.91,10.12-2.62,15.46-2.3Z"></path></g><g><path class="c" d="M186.72,10.27h15.7c7.69,0,13.34,4.83,13.34,11.7s-5.66,11.75-13.34,11.75h-12.96v14.28h-2.75V10.27Zm15.15,20.75c6.53,0,11.09-3.62,11.09-9.06s-4.56-9.01-11.09-9.01h-12.41V31.02h12.41Z"></path><path class="c" d="M226.04,12.96v14.5h20.92v2.64h-20.92v15.21h22.79v2.69h-25.53V10.27h25.53v2.69h-22.79Z"></path><path class="c" d="M275.46,33.55l10.1,14.44h-3.24l-9.99-14.28h-12.02v14.28h-2.75V10.27h15.7c7.69,0,13.34,4.83,13.34,11.7,0,6.2-4.61,10.76-11.15,11.58Zm-15.15-2.53h12.41c6.53,0,11.09-3.62,11.09-9.06s-4.56-9.01-11.09-9.01h-12.41V31.02Z"></path><path class="c" d="M296.99,12.96v14.5h21.25v2.64h-21.25v17.9h-2.75V10.27h26.25v2.69h-23.5Z"></path><path class="c" d="M330.98,12.96v14.5h20.92v2.64h-20.92v15.21h22.79v2.69h-25.53V10.27h25.53v2.69h-22.79Z"></path><path class="c" d="M361.02,29.1c0-10.6,8.84-19.49,19.33-19.49,5.22,0,10.05,2.2,13.56,5.76l-1.92,1.92c-3.02-3.13-7.14-5.05-11.64-5.05-9.01,0-16.58,7.74-16.58,16.86s7.58,16.91,16.58,16.91c4.5,0,8.62-1.92,11.64-5.05l1.92,1.92c-3.51,3.51-8.35,5.76-13.56,5.76-10.49,0-19.33-8.95-19.33-19.55Z"></path><path class="c" d="M412.8,12.96h-13.45v-2.69h29.65v2.69h-13.45V47.99h-2.75V12.96Z"></path><path class="c" d="M184.91,91.08l1.7-2.14c3.35,3.35,8.07,5.49,13.29,5.49,6.09,0,10.05-3.29,10.05-7.63s-3.35-6.37-10.98-8.18c-8.46-1.92-12.35-4.5-12.35-9.83,0-6.2,5.11-10.76,12.24-10.76,4.94,0,9.5,2.03,13.07,5.38l-1.65,2.14c-3.24-3.07-7.3-4.89-11.59-4.89-5.44,0-9.33,3.4-9.33,7.91,0,3.73,3.4,5.66,10.98,7.47,8.29,1.98,12.35,4.78,12.35,10.54s-5,10.49-12.9,10.49c-5.76,0-11.04-2.2-14.88-5.98Z"></path><path class="c" d="M222.19,58.74h2.75l14.77,27.78,14.77-27.78h2.75v37.72h-2.75v-32.01l-14.77,27.78-14.77-27.78v32.01h-2.75V58.74Z"></path><path class="c" d="M268.1,58.74h2.75v37.72h-2.75V58.74Z"></path><path class="c" d="M304.4,93.77v2.69h-24.1V58.74h2.75v35.03h21.36Z"></path><path class="c" d="M314.73,61.43v14.5h20.92v2.64h-20.92v15.21h22.79v2.69h-25.53V58.74h25.53v2.69h-22.79Z"></path><path class="b" d="M184.91,139.56l1.7-2.14c3.35,3.35,8.07,5.49,13.29,5.49,6.09,0,10.05-3.29,10.05-7.63s-3.35-6.37-10.98-8.18c-8.46-1.92-12.35-4.5-12.35-9.83,0-6.2,5.11-10.76,12.24-10.76,4.94,0,9.5,2.03,13.07,5.38l-1.65,2.14c-3.24-3.07-7.3-4.89-11.59-4.89-5.44,0-9.33,3.4-9.33,7.91,0,3.73,3.4,5.66,10.98,7.47,8.29,1.98,12.35,4.78,12.35,10.54s-5,10.49-12.9,10.49c-5.76,0-11.04-2.2-14.88-5.98Z"></path><path class="b" d="M232.96,109.91h-13.45v-2.69h29.65v2.69h-13.45v35.03h-2.75v-35.03Z"></path><path class="b" d="M257.72,130v-22.79h2.75v22.79c0,7.58,5.05,12.96,12.24,12.96s12.24-5.38,12.24-12.96v-22.79h2.74v22.79c0,9.11-6.2,15.59-14.99,15.59s-14.99-6.48-14.99-15.59Z"></path><path class="b" d="M298.96,107.22h12.85c11.53,0,19.71,7.8,19.71,18.83s-8.18,18.89-19.71,18.89h-12.85v-37.72Zm12.85,35.09c9.94,0,16.91-6.75,16.91-16.25s-6.97-16.2-16.91-16.2h-10.1v32.45h10.1Z"></path><path class="b" d="M340.75,107.22h2.75v37.72h-2.75v-37.72Z"></path><path class="b" d="M352.07,126.05c0-10.6,8.84-19.49,19.33-19.49s19.27,8.9,19.27,19.49-8.79,19.55-19.27,19.55-19.33-8.95-19.33-19.55Zm35.85,0c0-9.11-7.58-16.86-16.53-16.86s-16.58,7.74-16.58,16.86,7.58,16.91,16.58,16.91,16.53-7.74,16.53-16.91Z"></path></g></svg> 